# xmcd
#
# Track frame offsets: 
#        150
#        11960
#        23627
#        36778
#        49803
#        65674
#        77150
#        91623
#        105282
#        117673
#        129580
#        145383
#        161664
#        180043
#        190651
#        205742
#        226072
#        244623
#        249918
#        258594
#
# Disc length: 3666 seconds
#
# Revision: 0
# Processed by: cddbd v1.5.2PL0 Copyright (c) Steve Scherf et al.
# Submitted via: ExactAudioCopy v0.95a5
#
DISCID=000e5014
DTITLE=Brendan Shine - The Very Best Of
DYEAR=2009
DGENRE=Country
TTITLE0=Home, I'm Coming Home
TTITLE1=The Ferryman
TTITLE2=Shoe The Donkey
TTITLE3=The Old Home Town
TTITLE4=Squeeze Box
TTITLE5=Spread A Little Sunshine
TTITLE6=Just A Memory
TTITLE7=Giving It Up
TTITLE8=Clock On The Wall
TTITLE9=Sentimental Irish
TTITLE10=Someone From Home
TTITLE11=My Lovely Rose Of Clare
TTITLE12=My Son
TTITLE13=Drive Me To Drink
TTITLE14=Now I'm Easy
TTITLE15=The Fields Of Athenry
TTITLE16=The Diddling Song
TTITLE17=Catch Me If You Can
TTITLE18=Do You Want Your Old Lobby Washed Down
TTITLE19=Pub Crawl
EXTD=
EXTT0=
EXTT1=
EXTT2=
EXTT3=
EXTT4=
EXTT5=
EXTT6=
EXTT7=
EXTT8=
EXTT9=
EXTT10=
EXTT11=
EXTT12=
EXTT13=
EXTT14=
EXTT15=
EXTT16=
EXTT17=
EXTT18=
EXTT19=
PLAYORDER=
